<svg
  xmlns="http://www.w3.org/2000/svg"
  viewBox="0 0 100 100"
  width="100"
  height="100"
>
  <!-- Robot Head -->
  <rect x="20" y="20" width="60" height="60" rx="10" fill="#d3d3d3" stroke="#000" stroke-width="2" />

  <!-- Red Cross -->
  <rect x="45" y="25" width="10" height="20" fill="red" />
  <rect x="40" y="30" width="20" height="10" fill="red" />

  <!-- Eyes -->
  <circle cx="35" cy="45" r="6" fill="#000" />
  <circle cx="65" cy="45" r="6" fill="#000" />

  <!-- Mouth/Grille -->
  <rect x="35" y="60" width="30" height="5" fill="#000" />
  <line x1="35" y1="63" x2="65" y2="63" stroke="#fff" stroke-width="1" />
  <line x1="40" y1="60" x2="40" y2="65" stroke="#fff" stroke-width="1" />
  <line x1="45" y1="60" x2="45" y2="65" stroke="#fff" stroke-width="1" />
  <line x1="50" y1="60" x2="50" y2="65" stroke="#fff" stroke-width="1" />
  <line x1="55" y1="60" x2="55" y2="65" stroke="#fff" stroke-width="1" />
  <line x1="60" y1="60" x2="60" y2="65" stroke="#fff" stroke-width="1" />

  <!-- Antenna -->
  <line x1="50" y1="10" x2="50" y2="20" stroke="#000" stroke-width="2" />
  <circle cx="50" cy="10" r="3" fill="red" stroke="#000" stroke-width="2" />

  <!-- Ears (Robot Sides) -->
  <rect x="10" y="40" width="10" height="20" fill="#888" stroke="#000" stroke-width="2" />
  <rect x="80" y="40" width="10" height="20" fill="#888" stroke="#000" stroke-width="2" />
</svg>